<svg xmlns="http://www.w3.org/2000/svg" version="1.1" xmlns:xlink="http://www.w3.org/1999/xlink"
  width="512" height="512" x="0" y="0" viewBox="0 0 59 60"
  style="enable-background:new 0 0 512 512" xml:space="preserve" class="">
  <g>
    <g fill="none" transform="translate(-1)">
      <path fill="#3f5c6c"
        d="M54.57 21.34a24.7 24.7 0 0 1-18.92 12.59A31 31 0 0 1 29 47.08 12 12 0 0 0 25.89 55a4 4 0 1 1-8 0 19.32 19.32 0 0 1 1.4-7.21l-4-1.82a11.77 11.77 0 0 0-2.39 6.94A4.1 4.1 0 0 1 9.34 57a4 4 0 0 1-4.49-4A19.93 19.93 0 0 1 10 39.77a22.53 22.53 0 0 0 4.6-8.72A19.57 19.57 0 0 1 4.47 36 3 3 0 0 1 1 32.79 3.14 3.14 0 0 1 3.69 30a14.3 14.3 0 0 0 8.7-5.4 3 3 0 0 1 3.43-1.2v-1.25c21.47 3.66 21 3.5 21 3.6a1.44 1.44 0 0 0 1.83 1.46 18.81 18.81 0 0 0 10.52-8.57 3 3 0 0 1 5.36 2.69z"
        data-original="#3f5c6c"></path>
      <path fill="#35495e"
        d="M21.89 49c-7.7 0-8.92-4.56-9-4.76a1 1 0 0 1 .75-1.24 1 1 0 0 1 1.21.72c.05.16 1 3.25 7 3.25a1 1 0 0 1 0 2zM19.89 43a1 1 0 0 1-1-.89A16.71 16.71 0 0 1 24.36 28a1 1 0 0 1 1.42.07 1 1 0 0 1-.07 1.41 14.73 14.73 0 0 0-4.83 12.44 1 1 0 0 1-.99 1.08z"
        data-original="#35495e"></path>
      <path fill="#35495e"
        d="M27.89 40c-8.32 0-11.58-3.16-11.71-3.29a1 1 0 1 1 1.41-1.42c.06.05 2.94 2.71 10.3 2.71a1 1 0 0 1 0 2z"
        data-original="#35495e"></path>
      <g fill="#f0c419">
        <path d="M57 60a1 1 0 0 1-1-1v-4a1 1 0 0 1 2 0v4a1 1 0 0 1-1 1z" fill="#f0c419" data-original="#f0c419"
          class=""></path>
        <path d="M59 58h-4a1 1 0 0 1 0-2h4a1 1 0 0 1 0 2zM42 46a1 1 0 0 1-1-1v-4a1 1 0 0 1 2 0v4a1 1 0 0 1-1 1z"
          fill="#f0c419" data-original="#f0c419" class=""></path>
        <path d="M44 44h-4a1 1 0 0 1 0-2h4a1 1 0 0 1 0 2zM53 6a1 1 0 0 1-1-1V1a1 1 0 0 1 2 0v4a1 1 0 0 1-1 1z"
          fill="#f0c419" data-original="#f0c419" class=""></path>
        <path d="M55 4h-4a1 1 0 0 1 0-2h4a1 1 0 0 1 0 2z" fill="#f0c419" data-original="#f0c419" class=""></path>
      </g>
      <path fill="#35495e"
        d="M10.71 33.81a19 19 0 0 1-3.62 1.54 14.45 14.45 0 0 0-1.43-5.84 13.86 13.86 0 0 0 3.4-1.72 17.56 17.56 0 0 1 1.65 6.02zM51.13 26.11a24 24 0 0 1-3.26 3 10.48 10.48 0 0 1-4-4.43 19.39 19.39 0 0 0 3.07-2.78 13.49 13.49 0 0 0 4.19 4.21zM25.89 55a4 4 0 1 1-8 0v-1a9.49 9.49 0 0 1 8 0c.11 0 0-.12 0 1zM12.9 52a9.08 9.08 0 0 0-.05.91A4.1 4.1 0 0 1 9.34 57a4 4 0 0 1-4.49-4v-1a9.65 9.65 0 0 1 8 0zM37.58 27.09a14 14 0 0 1-22.19-3.78c.146.018.29.051.43.1v-1.25c21.47 3.66 21 3.5 21 3.6a1.46 1.46 0 0 0 .76 1.33z"
        data-original="#35495e"></path>
      <path fill="#2c3e50" d="M13.89 15c0 7.732 6.268 14 14 14s14-6.268 14-14-6.268-14-14-14-14 6.268-14 14z"
        data-original="#2c3e50"></path>
      <path fill="#f29c1f"
        d="M41.89 15a14 14 0 0 1-20.81 12.23A27.32 27.32 0 0 1 18.89 14s.1-.2.29-.55c1.36-2.37 7.59-11.4 20.82-5.52A13.92 13.92 0 0 1 41.89 15z"
        data-original="#f29c1f"></path>
      <path fill="#e57e25"
        d="M41.67 17.47a14 14 0 0 1-20.59 9.76A27.32 27.32 0 0 1 18.89 14s.1-.2.29-.55c4.7 5.55 12.15 10.09 22.49 4.02z"
        data-original="#e57e25"></path>
      <path fill="#f3d55b" d="M27.89 26a1 1 0 0 1 0-2 9 9 0 0 0 8.24-5.39 1 1 0 0 1 1.83.8A11 11 0 0 1 27.89 26z"
        data-original="#f3d55b"></path>
      <circle cx="37.89" cy="15" r="1" fill="#f3d55b" data-original="#f3d55b"></circle>
    </g>
  </g>
</svg>