<svg xmlns="http://www.w3.org/2000/svg" version="1.1" xmlns:xlink="http://www.w3.org/1999/xlink"
  width="512" height="512" x="0" y="0" viewBox="0 0 58 58"
  style="enable-background:new 0 0 512 512" xml:space="preserve" class="">
  <g>
    <g fill="none">
      <path fill="#9fc9d3"
        d="M43 42.62a1 1 0 0 1-.92-1.4L48 27.79V15.88a1 1 0 0 1 2 0c0 13.18 0 12.24-.08 12.52l-6 13.6a1 1 0 0 1-.92.62z"
        data-original="#9fc9d3"></path>
      <path fill="#9fc9d3"
        d="M55 42.62a1 1 0 0 1-.92-.6l-6-13.62c-.12-.27-.08.77-.08-12.52a1 1 0 0 1 2 0v11.91l5.92 13.43a1 1 0 0 1-.92 1.4z"
        data-original="#9fc9d3"></path>
      <path fill="#2c3e50"
        d="M4.6 33.64a3 3 0 0 1-1.86-2.34L.39 15.61a3 3 0 0 1 2.14-3.33l7-2.28L9 35.11a17.6 17.6 0 0 1-4.4-1.47z"
        data-original="#2c3e50"></path>
      <circle cx="15.5" cy="44.5" r="13.5" fill="#95a5a5" data-original="#95a5a5"></circle>
      <path fill="#7f8c8d"
        d="M28 39.4c0 2.49.12 3.23-.35 4.17A3.47 3.47 0 0 1 23 45.21a3.52 3.52 0 0 1-2-3.15V44a3.56 3.56 0 0 1-2.77 3.52A3.49 3.49 0 0 1 14 44.06v-6.49a1 1 0 0 0-.76-1c-5.13-1.27-4.64-1.14-4.85-1.22a3.5 3.5 0 0 1-1.64-1.17A13.51 13.51 0 0 1 28 39.4z"
        data-original="#7f8c8d"></path>
      <circle cx="13" cy="51" r="3" fill="#7f8c8d" data-original="#7f8c8d"></circle>
      <path fill="#35495e"
        d="M28 30.5c0 10.63.13 10.5-.35 11.5A3.47 3.47 0 0 1 23 43.65a3.52 3.52 0 0 1-2-3.15v1.9a3.56 3.56 0 0 1-2.77 3.52A3.49 3.49 0 0 1 14 42.5V36a1 1 0 0 0-.76-1c-5.07-1.22-4.64-1.1-4.85-1.18A3.55 3.55 0 0 1 6 30.49V19.56l15.78-1.12 5.33 9.73c.574.64.891 1.47.89 2.33z"
        data-original="#35495e"></path>
      <path fill="#2c3e50"
        d="M23 31v12.65a3.48 3.48 0 0 1-2-3.15c0-10.53.13-10-.37-10.81a1 1 0 1 1 1.7-1A4.48 4.48 0 0 1 23 31z"
        data-original="#2c3e50"></path>
      <path fill="#3f5c6c" d="M20 21.25c2.38 5.25.28 6 1.24 8.07 1.25 2.74 7.52 3 5.73-6.2-.33-1.72-.93-4.19-2.32-5.38z"
        data-original="#3f5c6c"></path>
      <path fill="#a56a43"
        d="M21 36c1.93-2.17 4.73-5.23 6.66-7 5.25-4.86 14.16-11.68 24.77-14a2 2 0 0 0-.86-3.9c-9.17 2-20 7.74-30.17 18.49a4.78 4.78 0 0 0-.4.41z"
        data-original="#a56a43"></path>
      <circle cx="49" cy="47" r="9" fill="#95a5a5" data-original="#95a5a5"></circle>
      <circle cx="45.5" cy="47.38" r="2.5" fill="#7f8c8d" data-original="#7f8c8d"></circle>
      <g fill="#f0c419">
        <path d="M35 12a1 1 0 0 1-1-1V7a1 1 0 0 1 2 0v4a1 1 0 0 1-1 1z" fill="#f0c419" data-original="#f0c419"></path>
        <path d="M37 10h-4a1 1 0 0 1 0-2h4a1 1 0 0 1 0 2zM41 33a1 1 0 0 1-1-1v-4a1 1 0 0 1 2 0v4a1 1 0 0 1-1 1z"
          fill="#f0c419" data-original="#f0c419"></path>
        <path d="M43 31h-4a1 1 0 0 1 0-2h4a1 1 0 0 1 0 2zM53 6a1 1 0 0 1-1-1V1a1 1 0 0 1 2 0v4a1 1 0 0 1-1 1z"
          fill="#f0c419" data-original="#f0c419"></path>
        <path d="M55 4h-4a1 1 0 0 1 0-2h4a1 1 0 0 1 0 2z" fill="#f0c419" data-original="#f0c419"></path>
      </g>
      <path fill="#7f8c8d"
        d="M27.08 51.45a13.54 13.54 0 0 1-6 5.32 4.01 4.01 0 0 1 6-5.32zM9 42.5a4.5 4.5 0 0 1-6.87 3.82 13.36 13.36 0 0 1 1.49-8.23A4.5 4.5 0 0 1 9 42.5z"
        data-original="#7f8c8d"></path>
      <path fill="#3f5c6c"
        d="M6.44 16.43c-.39.65-.38.94-.67 2.71a9 9 0 0 0 4.85 9.53C17.12 31.91 17.07 32 18 32a3 3 0 0 0 2.56-4.56c-.6-1-1.35-1.18-3.83-2.43l-3.42-1.71a3 3 0 0 1-1.62-2.18z"
        data-original="#3f5c6c"></path>
      <path fill="#547580" d="M5 11c0 6.075 4.925 11 11 11s11-4.925 11-11S22.075 0 16 0 5 4.925 5 11z"
        data-original="#547580"></path>
      <path fill="#f0c419"
        d="M25.61 16.35C21.49 18.93 15.28 18.42 12 15.3 7.16 10.73 11.58 4 19.5 4c2.15-.03 4.267.54 6.11 1.65a11 11 0 0 1 0 10.7z"
        data-original="#f0c419"></path>
      <path fill="#f9eab0" d="M24 12a1 1 0 0 1-1-1c0-3-3.84-3-4-3a1 1 0 0 1 0-2c2.08 0 6 1.05 6 5a1 1 0 0 1-1 1z"
        data-original="#f9eab0"></path>
      <path fill="#f29c1f"
        d="M26.59 14a10.76 10.76 0 0 1-1 2.37 12.24 12.24 0 0 1-9.72 1.13c-5.09-1.54-7.26-5.9-5-9.42 3.18 3.71 8.28 7.23 15.72 5.92z"
        data-original="#f29c1f"></path>
      <path fill="#7f8c8d"
        d="M57.92 48.15a9 9 0 0 1-4.21 6.51 4 4 0 1 1 4.21-6.51zM53 39.38a2.78 2.78 0 0 1-3 2.5c-2.28 0-3.74-2-2.61-3.74a9 9 0 0 1 5.56.77 3 3 0 0 1 .05.47z"
        data-original="#7f8c8d"></path>
    </g>
  </g>
</svg>