<svg xmlns="http://www.w3.org/2000/svg" version="1.1" xmlns:xlink="http://www.w3.org/1999/xlink"
  width="512" height="512" x="0" y="0" viewBox="0 0 58 55"
  style="enable-background:new 0 0 512 512" xml:space="preserve" class="">
  <g>
    <g fill="none">
      <path fill="#26b99a" d="M17 9H7.21a.5.5 0 0 1-.36-.85l2.8-2.8a.5.5 0 0 0 0-.7l-2.8-2.8A.5.5 0 0 1 7.21 1H17z"
        data-original="#26b99a"></path>
      <path fill="#547580" d="M17 14a1 1 0 0 1-1-1V1a1 1 0 0 1 2 0v12a1 1 0 0 1-1 1z" data-original="#547580"></path>
      <path fill="#2c3e50"
        d="M45.43 29.9c5.27 3.88 9.2 9.46 5.11 14.38-3.61 4.32-8.48 4-12.7.37l2.31-3.31a7.1 7.1 0 0 0 4.27 2.09 4 4 0 0 0 3-1.71 2.76 2.76 0 0 0 .71-2.38C47.82 37.35 45 34.56 43 33z"
        data-original="#2c3e50" class=""></path>
      <path fill="#e57e25"
        d="M19.88 39.63c-2.19-1-6.47-1.7-11.38 1.37l-1.06.64a3 3 0 0 1-4.23-1.23L.37 34.75A2 2 0 0 1 1.44 32c4.5-1.66 6.06 3 6.06 3a16 16 0 0 1 14.62-3.66L23 39z"
        data-original="#e57e25" class=""></path>
      <path fill="#35495e" d="m33 43.48 2.27 1.14a3 3 0 0 0 4.07-1.43l9.37-20.39a3 3 0 0 0-1.54-4L43 17z"
        data-original="#35495e" class=""></path>
      <path fill="#e57e25" d="m30 19-7.36 1.56-3-5.9a3 3 0 0 0-5.36 2.68l4 8A3 3 0 0 0 21 27a16 16 0 0 0 3.08-.61z"
        data-original="#e57e25" class=""></path>
      <path fill="#f29c1f"
        d="M42.82 20.63c.12.08-.33-.29 3 2.45a2.92 2.92 0 0 0 2.49.64c.26 0 .71-.24 5.28-2.35a3 3 0 0 1 2.88 5.26L52 28.68a9 9 0 0 1-10-.94c-2.17 2.38-4.5 5.69-5 9.26-.58 4.07-2.52 5.77-4 6.48a5.25 5.25 0 0 1-2 .52s-8.5 0-11 7l-.49 1.14a3 3 0 0 1-4.16 1.46l-5.6-3A2 2 0 0 1 9 47.75c2.73-4.31 7-.75 7-.75 1-6 4.93-8.23 4.93-8.23-.16-6.39 3.47-13.93 7-19.27z"
        data-original="#f29c1f" class=""></path>
      <path fill="#e57e25" d="M47 12c0 6.075-4.925 11-11 11s-11-4.925-11-11S29.925 1 36 1s11 4.925 11 11z"
        data-original="#e57e25" class=""></path>
      <path fill="#f29c1f" d="M47 11a11 11 0 0 1-21.9 0A11 11 0 0 1 47 11z" data-original="#f29c1f" class=""></path>
      <g fill="#f0c419">
        <path d="M6 24a1 1 0 0 1-1-1v-4a1 1 0 0 1 2 0v4a1 1 0 0 1-1 1z" fill="#f0c419" data-original="#f0c419"></path>
        <path d="M8 22H4a1 1 0 0 1 0-2h4a1 1 0 0 1 0 2zM31 55a1 1 0 0 1-1-1v-4a1 1 0 0 1 2 0v4a1 1 0 0 1-1 1z"
          fill="#f0c419" data-original="#f0c419"></path>
        <path d="M33 53h-4a1 1 0 0 1 0-2h4a1 1 0 0 1 0 2zM52 6a1 1 0 0 1-1-1V1a1 1 0 0 1 2 0v4a1 1 0 0 1-1 1z"
          fill="#f0c419" data-original="#f0c419"></path>
        <path d="M54 4h-4a1 1 0 0 1 0-2h4a1 1 0 0 1 0 2z" fill="#f0c419" data-original="#f0c419"></path>
      </g>
      <path fill="#35495e" d="M42 12c0 5.95-9.47 9.18-15.61 5.35a11 11 0 0 1 0-10.7C32.45 2.83 42 6 42 12z"
        data-original="#35495e" class=""></path>
      <path fill="#547580" d="M28 13a1 1 0 0 1-1-1c0-4 3.92-5 6-5a1 1 0 0 1 0 2c-.18 0-4 .06-4 3a1 1 0 0 1-1 1z"
        data-original="#547580"></path>
      <path fill="#2c3e50"
        d="M42 12c0 5.95-9.47 9.18-15.61 5.35a10.77 10.77 0 0 1-1.24-3.51c3.68 1.58 10 2.52 15.64-5.26A5.62 5.62 0 0 1 42 12zM9.92 40.2c-.73.37-.88.47-2.48 1.44a3 3 0 0 1-4.23-1.23L.37 34.75A2 2 0 0 1 1.44 32c4.5-1.66 6.06 3 6.06 3z"
        data-original="#2c3e50" class=""></path>
      <path fill="#35495e"
        d="M20.62 49.63c-.35.62-.35.76-1.1 2.48a3 3 0 0 1-4.16 1.46l-5.6-3A2 2 0 0 1 9 47.75c2.73-4.31 7-.75 7-.75z"
        data-original="#35495e" class=""></path>
    </g>
  </g>
</svg>