<svg xmlns="http://www.w3.org/2000/svg" version="1.1" xmlns:xlink="http://www.w3.org/1999/xlink"
  width="512" height="512" x="0" y="0" viewBox="0 0 58 58"
  style="enable-background:new 0 0 512 512" xml:space="preserve" class="">
  <g>
    <g fill="none">
      <path fill="#7f8c8d"
        d="M31.16 58h-26a3.37 3.37 0 0 1-3.32-4l1.26-6.45a4.53 4.53 0 0 1 2.16-3.37C10 41.34 8 42.32 13.07 40.33a4.41 4.41 0 0 1 3.1-.09c6.5 2.16 3.81 1.55 11.69 2.53a4.52 4.52 0 0 1 3.54 2.61l2.94 8.1A3.37 3.37 0 0 1 31.16 58z"
        data-original="#7f8c8d"></path>
      <path fill="#95a5a5"
        d="M34.34 53.48a3.36 3.36 0 0 1-3.18 2.27h-26A3.39 3.39 0 0 1 2 53.42l1.1-5.87a4.53 4.53 0 0 1 2.16-3.37c4.61-2.75 2.79-1.86 7.81-3.85a4.41 4.41 0 0 1 3.1-.09c6.66 2.21 3.84 1.55 11.69 2.53a4.52 4.52 0 0 1 3.54 2.61z"
        data-original="#95a5a5"></path>
      <path fill="#7f8c8d"
        d="M21.73 42A2 2 0 0 1 20 43h-9a2 2 0 0 1-1.8-1.13c.1-.07 3.13-1.25 3.87-1.54a4.41 4.41 0 0 1 3.1-.09c5.04 1.68 5.03 1.7 5.56 1.76zM31.63 46c-3.67 0-8.06-.53-9.4-3.93l5.63.7a4.52 4.52 0 0 1 3.54 2.61z"
        data-original="#7f8c8d"></path>
      <path fill="#f29c1f"
        d="M57 55a3 3 0 0 1-3 3h-7.3a4 4 0 0 1-4-4.64L44.26 44H31c-4.67 0-6.92-1.35-8-2.64A4 4 0 0 1 22 39V21a5.92 5.92 0 0 1 3.9-5.64c1.69 3.91 13 6.35 14.28 5.82a35.29 35.29 0 0 1 0 8.66c.71.1 4.83.16 5.83.16a3 3 0 0 1 0 6h.87a6 6 0 0 1 5.81 7.64L50.32 51H53a4 4 0 0 1 4 4z"
        data-original="#f29c1f"></path>
      <path fill="#f0c419" d="M47 11c0 6.075-4.925 11-11 11s-11-4.925-11-11S29.925 0 36 0s11 4.925 11 11z"
        data-original="#f0c419"></path>
      <path fill="#35495e" d="M42.38 20a8.5 8.5 0 1 1 1.53-16.65A11 11 0 0 1 42.38 20z" data-original="#35495e"></path>
      <rect width="13" height="23" x="9" y="18" fill="#3f5c6c" rx="2" data-original="#3f5c6c"></rect>
      <rect width="13" height="14" x="9" fill="#3f5c6c" rx="2" data-original="#3f5c6c"></rect>
      <path fill="#35495e" d="M11 14h9v4h-9z" data-original="#35495e"></path>
      <path fill="#e57e25"
        d="M57 55a3 3 0 0 1-3 3h-7.3a4 4 0 0 1-4-4.64L44.26 44H31c-4.67 0-6.92-1.35-8-2.64A4 4 0 0 1 22 39v-4c28.28 0 26.31-.07 26.12.12A3 3 0 0 1 46 36h.87a6 6 0 0 1 5.81 7.64L50.32 51H53a4 4 0 0 1 4 4z"
        data-original="#e57e25" class=""></path>
      <path fill="#e57e25"
        d="M48.82 34A3 3 0 0 1 46 36h-5.53c-4.49 0-9.09-.07-11.92-3-1.89-2-2.72-4.91-2.55-9a1 1 0 0 1 2 0c-.15 3.53.5 6 2 7.54C32.31 34 36.59 34 40.83 34z"
        data-original="#e57e25" class=""></path>
      <path fill="#d25627"
        d="M48.71 36.28A3 3 0 0 1 46 38h-5.53c-4.47 0-9.06-.07-11.89-3h3.55c2.37 1 5.55 1 8.7 1 6.37 0 6.68-.09 7.88.28z"
        data-original="#d25627"></path>
      <path fill="#e57e25"
        d="M40.36 27.85c0 .64-.1 1.31-.19 2-6.09-.36-6.36-4.88-6.36-4.93a1 1 0 0 1 2 0c.02.2.32 2.71 4.55 2.93z"
        data-original="#e57e25" class=""></path>
      <path fill="#547580"
        d="M13 25a1 1 0 0 1-1-1v-2a1 1 0 0 1 2 0v2a1 1 0 0 1-1 1zM13 38a1 1 0 0 1-1-1v-9a1 1 0 0 1 2 0v9a1 1 0 0 1-1 1z"
        data-original="#547580"></path>
      <path fill="#bdc3c7"
        d="M9 54a1 1 0 0 1-1-1.24l1-4a1 1 0 0 1 .52-.65l4-2a1 1 0 1 1 .9 1.78l-3.59 1.8-.83 3.55A1 1 0 0 1 9 54z"
        data-original="#bdc3c7"></path>
      <g fill="#f0c419">
        <path d="M51 27a1 1 0 0 1-1-1v-4a1 1 0 0 1 2 0v4a1 1 0 0 1-1 1z" fill="#f0c419" data-original="#f0c419"></path>
        <path d="M53 25h-4a1 1 0 0 1 0-2h4a1 1 0 0 1 0 2zM55 6a1 1 0 0 1-1-1V1a1 1 0 0 1 2 0v4a1 1 0 0 1-1 1z"
          fill="#f0c419" data-original="#f0c419"></path>
        <path d="M57 4h-4a1 1 0 0 1 0-2h4a1 1 0 0 1 0 2zM3 19a1 1 0 0 1-1-1v-4a1 1 0 0 1 2 0v4a1 1 0 0 1-1 1z"
          fill="#f0c419" data-original="#f0c419"></path>
        <path d="M5 17H1a1 1 0 0 1 0-2h4a1 1 0 0 1 0 2z" fill="#f0c419" data-original="#f0c419"></path>
      </g>
      <path fill="#35495e" d="M57 55a3 3 0 0 1-3 3h-7.3a4 4 0 0 1-4-4.64l.43-2.36H53a4 4 0 0 1 4 4z"
        data-original="#35495e"></path>
      <path fill="#547580" d="M37 11a1 1 0 0 1-1-1c0-4 3.92-5 6-5a1 1 0 0 1 0 2c-.18 0-4 .06-4 3a1 1 0 0 1-1 1z"
        data-original="#547580"></path>
      <path fill="#2c3e50" d="M47 10.8a11 11 0 0 1-4.62 9.2 8.51 8.51 0 0 1-9.13-6.48c4.17.37 9.44.08 13.75-2.72z"
        data-original="#2c3e50"></path>
    </g>
  </g>
</svg>