<svg xmlns="http://www.w3.org/2000/svg" version="1.1" xmlns:xlink="http://www.w3.org/1999/xlink"
  width="512" height="512" x="0" y="0" viewBox="0 0 512 512"
  style="enable-background:new 0 0 512 512" xml:space="preserve" class="">
  <g>
    <g fill="#3f4751">
      <path
        d="M384.582 418.549C348.07 447.041 304.285 462.1 257.95 462.1c-113.644 0-206.1-92.456-206.1-206.1 0-43.019 13.081-84.208 37.828-119.117 3.194-4.505 2.131-10.747-2.375-13.941-4.506-3.196-10.747-2.131-13.94 2.375C46.204 163.625 31.85 208.814 31.85 256c0 60.363 23.505 117.127 66.183 159.834 42.704 42.731 99.497 66.266 159.918 66.266 50.883 0 98.964-16.553 139.047-47.87.32-.251.636-.53.924-.818 3.905-3.905 3.9-10.232-.005-14.138-3.646-3.645-9.408-3.884-13.335-.725zM417.784 96.083C375.076 53.404 318.313 29.9 257.95 29.9c-51.698 0-102.232 17.874-142.295 50.33-4.292 3.477-4.952 9.773-1.476 14.065s9.773 4.952 14.065 1.475C164.757 66.19 210.82 49.9 257.95 49.9c113.644 0 206.1 92.456 206.1 206.1 0 50.521-18.523 99.15-52.158 136.931-3.673 4.125-3.306 10.446.819 14.118a9.959 9.959 0 0 0 6.646 2.531 9.977 9.977 0 0 0 7.473-3.351c36.899-41.447 57.221-94.8 57.221-150.229-.001-60.42-23.534-117.213-66.267-159.917z"
        fill="#ffffff" data-original="#3f4751" class=""></path>
      <path
        d="M257.95 106.9c75.101 0 138.704 56.104 147.946 130.503.681 5.48 5.673 9.365 11.156 8.691 5.48-.681 9.372-5.676 8.691-11.157C415.26 150.542 343.124 86.9 257.95 86.9c-45.203 0-87.678 17.58-119.599 49.501C106.43 168.323 88.85 210.797 88.85 256c0 93.242 75.858 169.1 169.101 169.1 81.041 0 150.889-57.724 166.082-137.254 1.036-5.424-2.521-10.662-7.946-11.698-5.427-1.036-10.663 2.521-11.698 7.945C390.992 354.209 329.406 405.1 257.95 405.1c-82.214 0-149.101-66.886-149.101-149.1s66.887-149.1 149.101-149.1z"
        fill="#ffffff" data-original="#3f4751" class=""></path>
    </g>
    <path fill="#3ca8bb" d="M457.95 36c11.05 0 20 8.95 20 20s-8.95 20-20 20-20-8.95-20-20 8.95-20 20-20z"
      data-original="#20505b" class=""></path>
    <path fill="#44cc27"
      d="M415.82 236.17c12.46 1.42 22.13 11.99 22.13 24.83 0 13.39-10.521 24.31-23.74 24.97-.42.021-.84.03-1.26.03-13.811 0-25-11.19-25-25s11.189-25 25-25c.97 0 1.93.06 2.87.17z"
      data-original="#44cc27" class=""></path>
    <path fill="#b1501b"
      d="M390.84 426.35a19.813 19.813 0 0 1-2.89-10.35c0-11.05 8.95-20 20-20 4.24 0 8.18 1.32 11.41 3.58 5.199 3.61 8.59 9.62 8.59 16.42 0 11.05-8.95 20-20 20-7.26 0-13.61-3.86-17.11-9.65z"
      data-original="#b1501b"></path>
    <path fill="#fcbc1d"
      d="M257.95 206.9c27.09 0 49.1 21.96 49.1 49.1 0 27.09-22.01 49.1-49.1 49.1-27.141 0-49.101-22.01-49.101-49.1.001-27.14 21.961-49.1 49.101-49.1z"
      data-original="#fcbc1d" class=""></path>
    <path fill="#f24125"
      d="M121.95 88c3.77 5.02 6 11.25 6 18 0 16.57-13.431 30-30 30-6.061 0-11.71-1.8-16.42-4.91-8.18-5.34-13.58-14.59-13.58-25.09 0-16.57 13.43-30 30-30 9.82 0 18.529 4.71 24 12z"
      data-original="#f24125" class=""></path>
    <circle cx="57.95" cy="446" r="30" fill="#3ca8bb" data-original="#20505b" class=""></circle>
    <g fill="#1aa5e2">
      <path
        d="M466.178 398.898c-5.521 0-10 4.469-10 10 0 5.52 4.479 10 10 10 5.52 0 10-4.48 10-10 0-5.531-4.481-10-10-10zM465.178 123.228c5.52 0 10-4.48 10-10s-4.48-10-10-10c-5.521 0-10 4.48-10 10s4.479 10 10 10zM405.178 453.229c-5.521 0-10 4.48-10 10s4.479 10 10 10c5.52 0 10-4.48 10-10s-4.481-10-10-10zM127.95 26c-5.521 0-10 4.48-10 10s4.479 10 10 10c5.52 0 10-4.48 10-10s-4.48-10-10-10zM127.95 466c-5.521 0-10 4.48-10 10s4.479 10 10 10c5.52 0 10-4.48 10-10s-4.48-10-10-10zM37.95 76c-5.521 0-10 4.48-10 10s4.479 10 10 10c5.52 0 10-4.48 10-10s-4.48-10-10-10z"
        fill="#ffffff" data-original="#1aa5e2" class=""></path>
    </g>
    <path fill="#d89e1d"
      d="M231.38 365.1a9.997 9.997 0 0 1-9.755-7.803c-1.611-7.149-6.044-13.148-12.482-16.893-6.213-3.574-13.896-4.433-20.783-2.315a10 10 0 0 1-12.498-12.497c2.166-7.047 1.321-14.454-2.38-20.857-3.672-6.376-9.667-10.801-16.888-12.473a10 10 0 0 1-4.537-17.081c5.413-5.01 8.394-11.821 8.394-19.181 0-7.384-2.983-14.215-8.398-19.236a10 10 0 0 1 4.592-17.087c7.06-1.597 13.194-6.134 16.831-12.448 3.713-6.39 4.554-13.772 2.387-20.82a10 10 0 0 1 12.497-12.497c6.893 2.119 14.536 1.265 20.788-2.368 6.346-3.655 10.883-9.791 12.48-16.85a9.999 9.999 0 0 1 17.087-4.592c5.021 5.416 11.853 8.398 19.236 8.398 7.358 0 14.171-2.981 19.182-8.393a10 10 0 0 1 17.08 4.537c1.672 7.221 6.097 13.215 12.459 16.88 6.327 3.656 13.977 4.507 20.87 2.387 3.542-1.086 7.392-.131 10.01 2.487s3.575 6.47 2.487 10.01a26.362 26.362 0 0 0 2.339 20.824c3.722 6.399 9.721 10.832 16.871 12.442a10 10 0 0 1 4.601 17.089c-5.416 5.021-8.398 11.853-8.398 19.236 0 7.359 2.98 14.171 8.393 19.181a10.001 10.001 0 0 1-4.546 17.083c-7.207 1.662-13.224 6.099-16.942 12.494-3.554 6.208-4.437 13.414-2.476 20.296a9.992 9.992 0 0 1 .621 3.477c0 5.489-4.423 9.944-9.898 9.999a9.964 9.964 0 0 1-3.061-.44c-6.894-2.12-14.566-1.271-20.894 2.35-6.335 3.685-10.771 9.701-12.433 16.907a10 10 0 0 1-17.083 4.547c-5.011-5.412-11.822-8.393-19.182-8.393-7.385 0-14.216 2.982-19.236 8.398a10.004 10.004 0 0 1-7.335 3.202zm-34.385-48.168a46.288 46.288 0 0 1 22.163 6.161 46.724 46.724 0 0 1 16.468 16.168 46.327 46.327 0 0 1 22.324-5.761c7.833 0 15.492 2.02 22.253 5.74 3.968-6.595 9.562-12.119 16.45-16.125 6.838-3.914 14.494-6.033 22.249-6.184a46.626 46.626 0 0 1 6.129-22.169c4.026-6.925 9.562-12.534 16.16-16.508a46.2 46.2 0 0 1-5.741-22.255c0-7.86 2.025-15.543 5.76-22.323a46.631 46.631 0 0 1-16.145-16.43 46.465 46.465 0 0 1-6.165-22.182 46.35 46.35 0 0 1-22.224-6.217c-6.781-3.906-12.416-9.492-16.427-16.115a46.196 46.196 0 0 1-22.3 5.767 46.322 46.322 0 0 1-22.326-5.762 46.294 46.294 0 0 1-16.463 16.117 46.027 46.027 0 0 1-22.164 6.21 46.153 46.153 0 0 1-6.211 22.179 46.189 46.189 0 0 1-16.098 16.431 46.32 46.32 0 0 1 5.762 22.325 46.195 46.195 0 0 1-5.768 22.301c6.624 4.012 12.212 9.649 16.123 16.438a46.4 46.4 0 0 1 6.191 22.194z"
      data-original="#d89e1d" class=""></path>
  </g>
</svg>