<svg xmlns="http://www.w3.org/2000/svg" version="1.1" xmlns:xlink="http://www.w3.org/1999/xlink"
  width="512" height="512" x="0" y="0" viewBox="0 0 512 512"
  style="enable-background:new 0 0 512 512" xml:space="preserve" class="">
  <g>
    <path fill="#f96464"
      d="m334.152 454.99-51.203 51.203c-10.786 10.786-29.205 5.824-33.113-8.921l-49.244-185.796-185.854-49.291c-14.743-3.91-19.703-22.328-8.918-33.113l51.207-51.207a65.95 65.95 0 0 1 48.369-19.293l191.215 5.038 51.796 51.796 5.038 191.215a65.945 65.945 0 0 1-19.293 48.369z"
      data-original="#f96464"></path>
    <path fill="#ffffff"
      d="m23.702 230.477 24.873-24.924a8.17 8.17 0 0 1 11.566 11.542l-24.873 24.924a8.17 8.17 0 0 1-11.566-11.542z"
      opacity=".4" data-original="#ffffff"></path>
    <path
      d="m334.127 455.003-51.183 51.183c-10.784 10.784-29.193 5.854-33.121-8.935l-.924-3.543c5.546.616 11.399-1.155 15.906-5.661l51.183-51.183c12.825-12.825 19.757-30.31 19.295-48.41l-5.045-191.216 18.178 18.178 5.045 191.216a65.95 65.95 0 0 1-19.334 48.371z"
      opacity=".08" fill="#000000" data-original="#000000"></path>
    <path fill="#f2f0f0"
      d="M187.502 400c60.684-5.299 147.796-54.398 226.525-133.128 78.706-78.706 95.061-179.855 97.909-232.137 1.068-19.608-15.084-35.757-34.692-34.684-52.273 2.86-153.397 19.236-232.1 97.939-78.73 78.73-127.829 165.842-133.14 226.513z"
      data-original="#f2f0f0"></path>
    <path fill="#ffffff"
      d="M153.727 241.434c-6.281 12.006-11.637 23.754-15.938 35.08-1.132 2.98-.351 6.33 1.903 8.584l.026.026c4.189 4.189 11.24 2.627 13.336-2.914 4.055-10.719 9.118-21.862 15.081-33.276 1.65-3.159 1.108-7.028-1.412-9.548-3.899-3.898-10.441-2.837-12.996 2.048z"
      opacity=".4" data-original="#ffffff"></path>
    <path fill="#f96464"
      d="M481.488 166.466c22.072-51.239 28.737-100.313 30.448-131.732C513.004 15.126 496.852-1.023 477.244.05c-31.412 1.718-80.474 8.394-131.702 30.471z"
      data-original="#f96464"></path>
    <path fill="#6d6d6d"
      d="M189.19 420.312c-5.151 5.151-13.502 5.151-18.653 0l-78.831-78.831c-5.151-5.151-5.151-13.502 0-18.653 5.151-5.151 13.502-5.151 18.653 0l78.831 78.831c5.15 5.151 5.15 13.502 0 18.653z"
      data-original="#6d6d6d"></path>
    <path fill="#f96464"
      d="M188.444 359.881c-11.527 11.527-106.103 89.879-116.105 79.877-10.081-10.081 68.27-104.657 79.798-116.185 11.617-11.617 46.417-30.194 56.499-20.112 10.002 10.003-8.574 44.803-20.192 56.42z"
      data-original="#f96464"></path>
    <circle cx="331.042" cy="180.975" r="79.903" fill="#6d6d6d" transform="rotate(-28 331.26 181.173)"
      data-original="#6d6d6d"></circle>
    <ellipse cx="331.042" cy="180.975" fill="#66d5f2" rx="61.231" ry="61.232" transform="rotate(-28 331.26 181.173)"
      data-original="#66d5f2"></ellipse>
    <path
      d="M414.041 266.869c-78.72 78.72-165.874 127.824-226.532 133.1l-13.364-13.364c60.658-5.276 147.812-54.38 226.532-133.1 78.681-78.682 95.049-179.855 97.899-232.155.346-6.278-1.117-12.285-3.89-17.369a32.854 32.854 0 0 1 17.254 30.733c-2.849 52.3-19.217 153.473-97.899 232.155z"
      opacity=".08" fill="#000000" data-original="#000000"></path>
  </g>
</svg>