<svg xmlns="http://www.w3.org/2000/svg" version="1.1" xmlns:xlink="http://www.w3.org/1999/xlink"
  width="512" height="512" x="0" y="0" viewBox="0 0 511.999 511.999"
  style="enable-background:new 0 0 512 512" xml:space="preserve" class="">
  <g>
    <path
      d="M26.387 493.34a7.726 7.726 0 0 1-5.464-13.189l36.775-36.775a7.726 7.726 0 0 1 10.927 10.926L31.85 491.077a7.707 7.707 0 0 1-5.463 2.263z"
      style="" fill="#6c7a88" data-original="#6c7a88"></path>
    <path
      d="M329.12 344.572c-3.955 0-7.91-1.508-10.926-4.526l-146.24-146.239c-6.035-6.035-6.035-15.818 0-21.853 6.034-6.035 15.818-6.035 21.853 0l146.239 146.239c6.035 6.035 6.035 15.818 0 21.853a15.405 15.405 0 0 1-10.926 4.526z"
      style="" fill="#8b9ba9" data-original="#8b9ba9"></path>
    <path d="M400.221 111.779c-22.624-22.624-59.306-22.624-81.931 0v81.931h81.931c22.625-22.625 22.625-59.306 0-81.931z"
      style="" fill="#e9e3d5" data-original="#e9e3d5"></path>
    <path
      d="M400.221 111.779a57.838 57.838 0 0 0-15.755-11.197c10.428 21.576 6.705 48.274-11.197 66.175l-54.979 26.952h81.931c22.625-22.624 22.625-59.305 0-81.93z"
      style="" fill="#b6b0a2" data-original="#b6b0a2"></path>
    <path
      d="M146.73 365.263c-33.284-33.286-81.483-42.568-123.084-27.845-24.635 8.718-31.666 40.236-13.187 58.715l105.403 105.408c18.478 18.479 49.994 11.449 58.712-13.188 14.721-41.603 5.44-89.804-27.844-123.09z"
      style="" fill="#8b9ba9" data-original="#8b9ba9"></path>
    <path
      d="M165.271 365.263c-9.431-9.432-20.061-16.933-31.398-22.509 14.108 28.675 15.89 61.879 5.338 91.697-8.711 24.615-40.179 31.653-58.664 13.232l53.855 53.858c18.479 18.479 49.994 11.449 58.712-13.188 14.722-41.603 5.441-89.804-27.843-123.09z"
      style="" fill="#6c7a88" data-original="#6c7a88"></path>
    <path
      d="M318.915 112.404c-6.035-6.035-15.818-6.035-21.853 0L117.508 291.958c-12.019 12.019-12.019 31.686 0 43.705l58.828 58.828c12.019 12.019 31.686 12.019 43.706 0l179.554-179.554c6.035-6.035 6.035-15.818 0-21.853l-80.681-80.68z"
      style="" fill="#ffcf5d" data-original="#ffcf5d"></path>
    <path
      d="m399.596 193.084-26.951-26.952.001.001-53.731-53.731c-6.035-6.035-15.818-6.035-21.853 0l-5.463 5.463 66.477 66.477c5.029 5.029 5.029 13.182 0 18.211L193.091 367.539c-12.019 12.019-31.685 12.019-43.705.001l26.951 26.951c12.019 12.019 31.686 12.019 43.705 0l174.091-174.09 5.463-5.463c6.034-6.035 6.034-15.819 0-21.854z"
      style="" fill="#ff983b" data-original="#ff983b"></path>
    <circle cx="15.463" cy="496.543" r="15.452" style="" fill="#8b9ba9" data-original="#8b9ba9"></circle>
    <path
      d="M122.973 286.494a7.727 7.727 0 0 0-10.927 10.926l102.532 102.534a7.702 7.702 0 0 0 5.464 2.263 7.726 7.726 0 0 0 5.464-13.189L122.973 286.494zM394.134 220.401 291.6 117.867a7.727 7.727 0 0 0-10.927 10.926l102.534 102.534c1.509 1.508 3.487 2.263 5.464 2.263s3.955-.754 5.464-2.263a7.727 7.727 0 0 0-.001-10.926z"
      style="" fill="#ffb545" data-original="#ffb545"></path>
    <path
      d="M111.548 9.014c-12.019-12.019-31.686-12.019-43.705 0L9.014 67.843c-12.019 12.019-12.019 31.686 0 43.705L120.686 223.22c6.035 6.035 15.818 6.035 21.853 0l80.68-80.681c6.035-6.035 6.035-15.818 0-21.853L111.548 9.014z"
      style="" fill="#456ea2" data-original="#456ea2"></path>
    <path
      d="m93.371 195.904 45.804-45.803 38.243 38.243 10.926-10.927-38.244-38.242 45.805-45.804-10.927-10.926-45.803 45.804L93.06 82.134l45.804-45.803-10.926-10.926-45.804 45.803-38.242-38.242-10.927 10.926 38.242 38.242-45.802 45.804 10.926 10.926 45.803-45.803 46.115 46.114-45.805 45.803z"
      style="" fill="#5c87bd" data-original="#5c87bd"></path>
    <path
      d="M111.548 9.014c-8.05-8.05-19.529-10.699-29.844-7.966a30.762 30.762 0 0 0 7.991 29.82l100.748 100.746-69.756 69.756a30.752 30.752 0 0 0-7.976 13.874l7.977 7.977c6.035 6.035 15.818 6.035 21.853 0l80.68-80.681c6.035-6.035 6.035-15.818 0-21.853L111.548 9.014z"
      style="" fill="#315588" data-original="#315588"></path>
    <path
      d="M502.985 400.451 391.313 288.779c-6.035-6.035-15.818-6.035-21.853 0l-80.68 80.681c-6.035 6.035-6.035 15.818 0 21.853l111.672 111.672c12.019 12.019 31.686 12.019 43.705 0l58.828-58.828c12.019-12.018 12.019-31.686 0-43.706z"
      style="" fill="#456ea2" data-original="#456ea2"></path>
    <path
      d="m384.062 486.596 45.804-45.804 38.243 38.242 10.925-10.926-38.242-38.243 45.804-45.803-10.926-10.926-45.804 45.804-46.114-46.115 45.803-45.803-10.925-10.926-45.804 45.803-38.243-38.242-10.926 10.926 38.242 38.242-45.803 45.803 10.925 10.927 45.805-45.803 46.114 46.113-45.804 45.805z"
      style="" fill="#5c87bd" data-original="#5c87bd"></path>
    <path
      d="m444.158 502.985 58.828-58.828c12.019-12.019 12.019-31.686 0-43.705L391.313 288.779c-6.035-6.035-15.818-6.035-21.853 0l-7.977 7.977a30.748 30.748 0 0 0 7.977 13.875l111.622 111.601c.01.027.012.081.032.081.005 0 .011-.003.019-.01l-58.828 58.828a30.762 30.762 0 0 0-7.991 29.819c10.315 2.735 21.794.085 29.844-7.965z"
      style="" fill="#315588" data-original="#315588"></path>
  </g>
</svg>