<svg xmlns="http://www.w3.org/2000/svg" version="1.1" xmlns:xlink="http://www.w3.org/1999/xlink"
  width="512" height="512" x="0" y="0" viewBox="0 0 512.002 512"
  style="enable-background:new 0 0 512 512" xml:space="preserve" class="">
  <g>
    <g fill="#c7c5cb">
      <path
        d="M130.395 295.531v89.004c0 19.528 15.832 35.356 35.355 35.356h74.277V295.53zM381.605 295.531v89.004c0 19.528-15.832 35.356-35.355 35.356h-74.277V295.53zM455.195 183.5h39.668v213.602h-39.668zM371.297 53.102h39.668v213.605h-39.668zM56.805 397.102H17.137V183.5h39.668zM140.703 266.707h-39.668V53.102h39.668zm0 0"
        fill="#c7c5cb" data-original="#c7c5cb" class=""></path>
    </g>
    <path fill="#f4e64c"
      d="M256 332.305c-34.004 14.527-57.832 48.273-57.832 87.586 0 36.593 20.644 68.359 50.922 84.296a14.832 14.832 0 0 0 13.82 0c30.277-15.937 50.922-47.703 50.922-84.296 0-39.313-23.828-73.059-57.832-87.586zm0 0"
      data-original="#f4e64c"></path>
    <path fill="#ff6f7f"
      d="M256 330.258a71.083 71.083 0 0 0-29.477 57.695 71.075 71.075 0 0 0 18.227 47.586 15.095 15.095 0 0 0 22.5 0 71.075 71.075 0 0 0 18.227-47.586A71.083 71.083 0 0 0 256 330.258zm0 0"
      data-original="#ff6f7f"></path>
    <path fill="#a19dae"
      d="M56.805 239.957 17.133 305.18v91.922h39.672zM140.703 102.008l-39.668 65.222v99.477h39.668zM371.297 102.012v164.695h39.668V167.23zM494.867 305.18l-39.672-65.223v157.145h39.672zm0 0"
      data-original="#a19dae"></path>
    <path fill="#e4e4e4"
      d="M498.805 371.133 281.953 14.593a30.375 30.375 0 0 0-51.906 0L13.195 371.134A90.565 90.565 0 0 0 0 418.215v13.672c0 9.488 10.637 15.09 18.46 9.726l168.497-115.539a19.804 19.804 0 0 1 11.211-3.476c10.95 0 19.824 8.875 19.824 19.824v19.68h76.016v-19.68c0-10.95 8.879-19.824 19.828-19.824 4 0 7.91 1.21 11.21 3.476l168.493 115.54c7.828 5.363 18.465-.239 18.465-9.727v-13.672a90.606 90.606 0 0 0-13.2-47.082zm0 0"
      data-original="#e4e4e4"></path>
    <path fill="#5c586f"
      d="m363.895 229.871-41.004-67.418c-15.25-25.074-41.07-37.61-66.891-37.61s-51.64 12.536-66.89 37.61l-41.005 67.418a10.779 10.779 0 0 0-1.574 5.613v16.97c0 8.327 9.028 13.538 16.227 9.347 20.344-11.852 56.965-29.664 93.242-29.664s72.895 17.812 93.238 29.664c7.2 4.191 16.23-1.02 16.23-9.348v-16.969c0-1.98-.542-3.921-1.573-5.613zm0 0"
      data-original="#5c586f"></path>
    <path fill="#423e4f"
      d="M177.438 252.45a71.336 71.336 0 0 1 10.39-37.075l32.188-52.922c12.187-20.043 31.136-32.066 51.437-36.086A79.658 79.658 0 0 0 256 124.844c-25.82 0-51.64 12.535-66.89 37.61l-41.005 67.413a10.803 10.803 0 0 0-1.574 5.617v16.965c0 8.332 9.028 13.543 16.23 9.352a276.404 276.404 0 0 1 14.766-8.008 10.78 10.78 0 0 1-.09-1.344zm0 0"
      data-original="#423e4f"></path>
    <path fill="#ff6f7f"
      d="M494.867 158.14h-39.672c-7.09 0-12.84 5.747-12.84 12.84v25.04c0 7.09 5.75 12.84 12.84 12.84h39.668c7.094 0 12.84-5.75 12.84-12.84v-25.04c.004-7.093-5.746-12.84-12.836-12.84zM410.965 27.742h-39.668c-7.094 0-12.84 5.75-12.84 12.84v25.04c0 7.093 5.746 12.839 12.84 12.839h39.668c7.09 0 12.84-5.746 12.84-12.84V40.582c0-7.09-5.75-12.84-12.84-12.84zm0 0"
      data-original="#ff6f7f"></path>
    <path fill="#f8485e"
      d="M389.36 65.621V40.582c0-7.09 5.75-12.84 12.843-12.84h-30.906c-7.094 0-12.84 5.75-12.84 12.84v25.04c0 7.093 5.746 12.839 12.84 12.839h30.906c-7.094 0-12.844-5.746-12.844-12.84zm0 0"
      data-original="#f8485e" class=""></path>
    <path fill="#ff6f7f"
      d="M17.133 158.14h39.672c7.09 0 12.84 5.747 12.84 12.84v25.04c0 7.09-5.75 12.84-12.84 12.84H17.133c-7.09 0-12.84-5.75-12.84-12.84v-25.04c0-7.093 5.75-12.84 12.84-12.84zm0 0"
      data-original="#ff6f7f"></path>
    <path fill="#f8485e"
      d="M35.2 196.02v-25.04c0-7.093 5.75-12.84 12.84-12.84H17.132c-7.09 0-12.84 5.747-12.84 12.84v25.04c0 7.09 5.75 12.84 12.84 12.84h30.906c-7.09 0-12.84-5.75-12.84-12.84zm0 0"
      data-original="#f8485e" class=""></path>
    <path fill="#ff6f7f"
      d="M101.035 27.742h39.668c7.094 0 12.84 5.75 12.84 12.84v25.04c0 7.093-5.746 12.839-12.84 12.839h-39.668c-7.09 0-12.84-5.746-12.84-12.84V40.582c0-7.09 5.75-12.84 12.84-12.84zm0 0"
      data-original="#ff6f7f"></path>
    <path fill="#f8485e"
      d="M119.102 65.621V40.582c0-7.09 5.75-12.84 12.84-12.84h-30.907c-7.09 0-12.84 5.75-12.84 12.84v25.04c0 7.093 5.75 12.839 12.84 12.839h30.906c-7.09 0-12.84-5.746-12.84-12.84zM473.262 196.02v-25.04c0-7.093 5.75-12.84 12.84-12.84h-30.907c-7.09 0-12.84 5.747-12.84 12.84v25.04c0 7.09 5.75 12.84 12.84 12.84h30.907c-7.09 0-12.84-5.75-12.84-12.84zm0 0"
      data-original="#f8485e" class=""></path>
  </g>
</svg>