<svg xmlns="http://www.w3.org/2000/svg" version="1.1" xmlns:xlink="http://www.w3.org/1999/xlink" width="512" height="512" x="0" y="0" viewBox="0 0 512 512"
  style="enable-background:new 0 0 512 512" xml:space="preserve" class="">
  <g>
    <path
      d="M367.034 209.024c0-61.322-49.712-111.034-111.034-111.034s-111.034 49.712-111.034 111.034v25.624h222.069v-25.624h-.001z"
      style="" fill="#c0e3f0" data-original="#c0e3f0"></path>
    <path
      d="M255.999 97.99c-3.478 0-6.916.168-10.311.481 56.487 5.203 100.723 52.708 100.723 110.554v25.624h20.623v-25.624c0-61.324-49.711-111.035-111.035-111.035z"
      style="" fill="#a3cfe3" data-original="#a3cfe3"></path>
    <path
      d="M392.659 239.804v-17.967c0-7.076-5.736-12.811-12.811-12.811H132.15c-7.076 0-12.812 5.736-12.812 12.811v17.966l273.321.001z"
      style="" fill="#feb756" data-original="#feb756"></path>
    <path
      d="M379.847 209.025h-20.623c7.076 0 12.812 5.736 12.812 12.811v17.967h20.623v-17.967c0-7.075-5.736-12.811-12.812-12.811z"
      style="" fill="#fa8043" data-original="#fa8043"></path>
    <path
      d="M196.212 388.385c0 14.152-11.472 25.625-25.625 25.625-14.152 0-25.625-11.472-25.625-25.625v-10.024h51.248v10.024h.002z"
      style="" fill="#c0e3f0" data-original="#c0e3f0"></path>
    <path
      d="M175.59 378.362v10.024c0 10.482-6.297 19.489-15.313 23.458a25.527 25.527 0 0 0 10.311 2.166c14.152 0 25.625-11.472 25.625-25.624v-10.024H175.59z"
      style="" fill="#a3cfe3" data-original="#a3cfe3"></path>
    <path d="M281.624 388.385c0 14.152-11.472 25.625-25.624 25.625s-25.625-11.472-25.625-25.625v-10.024h51.248v10.024z"
      style="" fill="#c0e3f0" data-original="#c0e3f0"></path>
    <path
      d="M261.001 378.362v10.024c0 10.482-6.297 19.489-15.312 23.458A25.527 25.527 0 0 0 256 414.01c14.152 0 25.624-11.472 25.624-25.624v-10.024h-20.623z"
      style="" fill="#a3cfe3" data-original="#a3cfe3"></path>
    <path
      d="M367.035 388.385c0 14.152-11.472 25.625-25.624 25.625s-25.625-11.472-25.625-25.625v-10.024h51.248l.001 10.024z"
      style="" fill="#c0e3f0" data-original="#c0e3f0"></path>
    <path
      d="M346.413 378.362v10.024c0 10.482-6.297 19.489-15.313 23.458a25.527 25.527 0 0 0 10.311 2.166c14.152 0 25.625-11.472 25.625-25.624v-10.024h-20.623z"
      style="" fill="#a3cfe3" data-original="#a3cfe3"></path>
    <path
      d="M127.882 344.335v37.864a6.187 6.187 0 0 0 6.187 6.187H377.93a6.187 6.187 0 0 0 6.187-6.187v-37.864H127.882z"
      style="" fill="#feb756" data-original="#feb756"></path>
    <path
      d="M363.494 344.335v37.864a6.187 6.187 0 0 1-6.187 6.187h20.622a6.187 6.187 0 0 0 6.187-6.187v-37.864h-20.622z"
      style="" fill="#fa8043" data-original="#fa8043"></path>
    <path
      d="M178.321 388.385v-17.082a7.733 7.733 0 1 0-15.466 0v17.082h15.466zM263.732 388.385v-17.082c0-4.271-3.461-7.733-7.733-7.733s-7.733 3.463-7.733 7.733v17.082h15.466zM349.142 388.385v-17.082c0-4.271-3.461-7.733-7.733-7.733s-7.733 3.463-7.733 7.733v17.082h15.466z"
      style="" fill="#4dbbeb" data-original="#4dbbeb"></path>
    <path
      d="M420.418 320.058c0 18.869-15.296 34.164-34.164 34.164H127.881c-18.869 0-34.164-15.296-34.164-34.164v-11.469h326.701v11.469z"
      style="" fill="#57555c" data-original="#57555c"></path>
    <path
      d="M399.795 308.588v11.469c0 18.869-15.296 34.164-34.164 34.164h20.623c18.869 0 34.164-15.296 34.164-34.164v-11.469h-20.623z"
      style="" fill="#4b494f" data-original="#4b494f"></path>
    <path
      d="M505.803 320.058c3.592 0 6.454-3.053 6.179-6.636-3.386-44.069-40.219-78.775-85.157-78.775H85.175c-44.938 0-81.771 34.705-85.157 78.775-.275 3.582 2.586 6.636 6.179 6.636h499.606z"
      style="" fill="#4dbbeb" data-original="#4dbbeb"></path>
    <circle cx="255.998" cy="277.352" r="17.082" style="" fill="#e4f1fb" data-original="#e4f1fb"></circle>
    <circle cx="341.417" cy="277.352" r="17.082" style="" fill="#e4f1fb" data-original="#e4f1fb"></circle>
    <circle cx="426.825" cy="277.352" r="17.082" style="" fill="#e4f1fb" data-original="#e4f1fb"></circle>
    <circle cx="170.59" cy="277.352" r="17.082" style="" fill="#e4f1fb" data-original="#e4f1fb"></circle>
    <circle cx="85.181" cy="277.352" r="17.082" style="" fill="#e4f1fb" data-original="#e4f1fb"></circle>
    <path
      d="M511.981 313.422c-3.386-44.069-40.219-78.775-85.157-78.775h-20.623c44.938 0 81.771 34.705 85.157 78.775.275 3.582-2.586 6.636-6.179 6.636h20.623c3.594 0 6.455-3.054 6.179-6.636z"
      style="" fill="#38a1d9" data-original="#38a1d9"></path>
    <path
      d="M426.823 260.272a16.983 16.983 0 0 0-10.311 3.485c4.107 3.12 6.771 8.041 6.771 13.596s-2.664 10.476-6.771 13.596a16.985 16.985 0 0 0 10.311 3.485c9.434 0 17.082-7.648 17.082-17.082 0-9.432-7.648-17.08-17.082-17.08zM341.411 260.272a16.978 16.978 0 0 0-10.31 3.485c4.107 3.12 6.771 8.041 6.771 13.596s-2.664 10.476-6.771 13.596a16.984 16.984 0 0 0 10.31 3.485c9.434 0 17.082-7.648 17.082-17.082-.001-9.432-7.648-17.08-17.082-17.08zM255.998 260.272a16.982 16.982 0 0 0-10.31 3.485c4.107 3.12 6.771 8.041 6.771 13.596s-2.664 10.476-6.771 13.596a16.984 16.984 0 0 0 10.31 3.485c9.434 0 17.082-7.648 17.082-17.082 0-9.432-7.648-17.08-17.082-17.08zM170.586 260.272a16.982 16.982 0 0 0-10.31 3.485c4.107 3.12 6.771 8.041 6.771 13.596s-2.664 10.476-6.771 13.596a16.984 16.984 0 0 0 10.31 3.485c9.434 0 17.082-7.648 17.082-17.082-.001-9.432-7.649-17.08-17.082-17.08zM85.173 260.272a16.985 16.985 0 0 0-10.311 3.485c4.107 3.12 6.771 8.041 6.771 13.596s-2.664 10.476-6.771 13.596a16.985 16.985 0 0 0 10.311 3.485c9.434 0 17.082-7.648 17.082-17.082 0-9.432-7.648-17.08-17.082-17.08z"
      style="" fill="#c9e3f7" data-original="#c9e3f7"></path>
  </g>
</svg>